:SAMPLES-PER-SECOND 30
:FULLY-SPECIFIED
:DEGREES
103
root  20.98791167 38.10911103 -28.21155458 -4.942550182 0.406565994 -2.129580021
lowerback  6.459780216 -0.9318810105 2.034130096
upperback  2.900000095 -1.095800042 2.147140026
thorax  -0.6287829876 -0.5443680286 1.141129971
lowerneck  -13.52700043 2.260550022 -1.640669942
upperneck  -2.243240118 3.264290094 -1.244330049
head  1.573889971 1.598399997 0.06113579869
lclavicle  0 -1.620099928e-014 -1.431250036e-014
lhumerus  -33.54339981 17.08390045 82.66600037
lradius  -3.326228977e-031 -1.18534587e-031 19.61420059
lwrist  -2.824900031e-030 -0 13.03890038
lhand  -1.522208093e-030 -21.89089966 22.84740067
lfingers  90 7.125020027 -90
lthumb  90.61603193 7.755020578 85.4441456
rclavicle  0 -1.620099928e-014 -1.431250036e-014
rhumerus  -32.0135994 -10.5649004 -82.19069672
rradius  3.320354652e-031 1.201702551e-031 19.89620018
rwrist  2.824900031e-030 -2.824900031e-030 -3.95430994
rhand  1.570731925e-030 -25.9428997 18.57430077
rfingers  -90 -7.125020027 -90
rthumb  -89.60083768 -33.59330664 -89.2785978
rfemur  -10.18280029 5.537250042 28.09440041
rtibia  -0 0 31.5366993
rfoot  -0 -16.75309944 -7.215720177
rtoes  -1.575397198 19.94038992 -85.38945295
lfemur  -11.86849976 3.349760056 -20.10009956
ltibia  -0 0 72.70749664
lfoot  -0 1.432850003 17.08060074
ltoes  -3.695914299 -19.66929668 -100.8636129
104
root  20.97722151 38.17244402 -27.87022328 -5.136700153 -0.02482110076 -2.120599985
lowerback  6.655950069 -0.7982299924 2.053539991
upperback  3.00906992 -0.9140040278 2.084969997
thorax  -0.6274440289 -0.4528439939 1.055830002
lowerneck  -13.62440014 2.359410048 -1.852620006
upperneck  -1.906659961 3.428230047 -0.9642009735
head  1.693660021 1.685029984 0.199733004
lclavicle  0 -1.620099928e-014 -1.431250036e-014
lhumerus  -34.08409882 18.26939964 81.6516037
lradius  -3.342313621e-031 -1.139203096e-031 18.82130051
lwrist  -2.824900031e-030 -2.824900031e-030 12.13749981
lhand  -1.522208093e-030 -21.89089966 22.84740067
lfingers  90 7.125020027 -90
lthumb  90.61603193 7.755020578 85.4441456
rclavicle  0 -1.620099928e-014 -1.431250036e-014
rhumerus  -30.81450081 -8.929849625 -83.1072998
rradius  3.311330328e-031 1.226350478e-031 20.32209969
rwrist  2.824900031e-030 -2.824900031e-030 -4.801129818
rhand  1.570731925e-030 -25.9428997 18.57430077
rfingers  -90 -7.125020027 -90
rthumb  -89.60083768 -33.59330664 -89.2785978
rfemur  -9.199859619 5.77049017 28.22929955
rtibia  -0 0 31.27560043
rfoot  -9.252661321e-032 -17.43000031 -7.096419811
rtoes  -1.575397198 19.94038992 -85.38945295
lfemur  -12.94979954 3.4375 -20.05419922
ltibia  -0 0 72.75509644
lfoot  -0 0.7500910163 16.74180031
ltoes  -3.695914299 -19.66929668 -100.8636129
105
root  20.97275501 38.16044424 -27.53599873 -5.011219978 -0.432287991 -2.267930031
lowerback  6.546520233 -0.6583409905 2.34010005
upperback  2.992729902 -0.7163220048 1.941920042
thorax  -0.5892950296 -0.3506959975 0.7327290177
lowerneck  -13.51410007 2.366349936 -1.617640018
upperneck  -1.693779945 3.406349897 -1.078999996
head  1.751590014 1.668069959 0.1227219999
lclavicle  0 -1.620099928e-014 -1.431250036e-014
lhumerus  -34.8117981 19.47970009 80.18939972
lradius  -3.355277641e-031 -1.100434455e-031 18.15800095
lwrist  0 -4.237350046e-030 10.09539986
lhand  -1.522208093e-030 -21.89089966 22.84740067
lfingers  90 7.125020027 -90
lthumb  90.61603193 7.755020578 85.4441456
rclavicle  0 -1.620099928e-014 -1.431250036e-014
rhumerus  -29.74790001 -7.899650097 -83.97519684
rradius  3.302975907e-031 1.248676978e-031 20.70890045
rwrist  0 -1.412450015e-030 -5.206089973
rhand  1.570731925e-030 -25.9428997 18.57430077
rfingers  -90 -7.125020027 -90
rthumb  -89.60083768 -33.59330664 -89.2785978
rfemur  -8.66242981 5.749090195 28.46489906
rtibia  -0 0 31.10359955
rfoot  -9.286598038e-032 -18.08499908 -6.700160027
rtoes  -1.575397198 19.94038992 -85.38945295
lfemur  -14.49100018 3.350680113 -19.8932991
ltibia  -0 0 72.7940979
lfoot  -0 -0.217516005 16.12350082
ltoes  -3.695914299 -19.66929668 -100.8636129
106
root  20.97411118 38.15844378 -27.202444 -4.832839966 -0.8690339923 -2.293780088
lowerback  6.339799881 -0.4876939952 2.578190088
upperback  3.040230036 -0.4874440134 1.753020048
thorax  -0.4280000031 -0.2316769958 0.3871119916
lowerneck  -13.37510014 2.357759953 -1.06475997
upperneck  -1.745980024 3.318160057 -1.417000055
head  1.726150036 1.613639951 -0.08598899841
lclavicle  0 -1.620099928e-014 -1.431250036e-014
lhumerus  -35.41930008 20.44050026 78.98799896
lradius  -3.366423798e-031 -1.065849357e-031 17.56839943
lwrist  -2.824900031e-030 2.824900031e-030 8.873559952
lhand  -1.522208093e-030 -21.89089966 22.84740067
lfingers  90 7.125020027 -90
lthumb  90.61603193 7.755020578 85.4441456
rclavicle  0 -1.620099928e-014 -1.431250036e-014
rhumerus  -28.74290085 -7.086259842 -84.67350006
rradius  3.285484011e-031 1.294001102e-031 21.49720001
rwrist  2.824900031e-030 -5.649800062e-030 -5.500619888
rhand  1.570731925e-030 -25.9428997 18.57430077
rfingers  -90 -7.125020027 -90
rthumb  -89.60083768 -33.59330664 -89.2785978
rfemur  -8.187250137 5.604269981 28.52020073
rtibia  -0 0 30.93569946
rfoot  -4.656976485e-032 -18.59339905 -6.171430111
rtoes  -1.575397198 19.94038992 -85.38945295
lfemur  -16.01169968 3.184710026 -19.91790009
ltibia  -0 0 72.62110138
lfoot  -0 -1.096160054 15.36019993
ltoes  -3.695914299 -19.66929668 -100.8636129
